#!OML:ASF E:/inclinewalkrobotboard/Project1/Captureday1/Session1/subject1.ASF
:FULLY-SPECIFIED
:DEGREES
188
root 0 0 0 2.854504762839563 -4.237843980721843 2.215716118286383
lowerback 11.804428135604395 1.165822267805693 -0.15768751727718677
upperback -4.211003700284922 1.489732693125791 -0.8040323417732421
thorax -11.088300400096188 0.685509801489993 -1.0720848742039863
lowerneck -6.959335918517342 1.2877562347746638 4.263915979014675
upperneck 19.132004117787872 2.6970452423881035 -8.030803100692301
head 7.142841043860434 0.9242766611665413 -3.123251220042887
rclavicle -1.1103355703718093E-15 -7.001195405773751E-16
rhumerus 17.430885733552294 13.388125978556682 -51.46962232903718
rradius 68.90137381484263
rwrist 23.67941802688179
rhand -32.92482325786048 -48.95742406283208
rfingers 7.125019999999962
rthumb -6.190114564679206 -79.01669106230449
lclavicle 1.0299810625642977E-15 9.600252873192203E-16
lhumerus 17.49439692197874 -13.383420799772392 49.45282163662594
lradius 66.9496013207055
lwrist -18.287005951433613
lhand -43.88820881961181 -60.37672826807932
lfingers 7.125019999999955
lthumb -16.724392435922525 -30.919816689024483
rfemur -23.927347520142405 2.077640635068626 19.65550729639219
rtibia 32.516333318130165
rfoot -27.035784068258856 -15.857966321923275
rtoes -21.05594183972666
lfemur -20.07187146862202 -0.12357311150144251 -15.554403783619128
ltibia 31.131258236926953
lfoot -25.911217365164667 5.14503359197231
ltoes -19.8939214929661
189
root 0 0 0 2.7627705009568135 -4.2018178669564525 2.2825855071504138
lowerback 11.796127904523035 1.1485672656994657 -0.21629722590125744
upperback -4.216562410433721 1.4583076856752206 -0.8140925572404184
thorax -11.092727753259053 0.6717710936138026 -1.0438181256491386
lowerneck -6.923398358525922 1.2798250597365268 4.272670942952371
upperneck 19.320377636623178 2.6875698052147623 -8.069693009141904
head 7.200772761926711 0.9161706821075867 -3.1397548701942464
rclavicle -8.366560572421904E-16 -8.332557665648999E-16
rhumerus 16.964429879461832 12.763523211204722 -51.10382669423713
rradius 68.52527195267231
rwrist 24.092002255306355
rhand -32.90643456568122 -48.97798613180817
rfingers 7.125019999999962
rthumb -6.170301180926675 -79.0571408837049
lclavicle 1.0575855379000693E-15 7.281966677841966E-16
lhumerus 17.29900749278896 -13.02046721986645 49.34907527754048
lradius 66.70837127056572
lwrist -18.483592654122223
lhand -43.870897088045176 -60.6215229816445
lfingers 7.125019999999955
lthumb -16.70939279167185 -31.162643771020296
rfemur -24.581679141914222 1.3674176611714595 18.519471489323404
rtibia 37.60984523014341
rfoot -23.031749736809026 -15.064020877240118
rtoes -20.20918289831675
lfemur -18.723688027605387 0.038927341804021354 -15.20683713682289
ltibia 34.479160826456884
lfoot -22.606125280192025 2.7414146516253037
ltoes -20.520863377119092
190
root 0 0 0 2.5663526826399172 -4.145846076576571 2.43288083639118
lowerback 11.846743598007194 1.108907667557284 -0.3499614860139767
upperback -4.209760315386051 1.3885000910331744 -0.829587122475221
thorax -11.125641871977123 0.6416109036262405 -0.9738226671528389
lowerneck -6.886371362717274 1.2931534570374283 4.286932425115127
upperneck 19.491372192118845 2.709959734177681 -8.129248953646336
head 7.252565921261972 0.921123525576189 -3.160983223689211
rclavicle -5.345639921989453E-16 -1.0916949473182623E-15
rhumerus 16.500365490235552 12.12400124055697 -50.70258409744123
rradius 68.15205177789255
rwrist 24.538998885771775
rhand -32.89627078823514 -49.041833912815555
rfingers 7.125019999999962
rthumb -6.159265574526589 -79.144765158652
lclavicle 1.068611325591619E-15 4.2652057010637244E-16
lhumerus 17.185661971711724 -12.715673576450987 49.22667087807591
lradius 66.53654624352826
lwrist -18.676981750428162
lhand -43.87970906202125 -60.93045500529426
lfingers 7.125019999999955
lthumb -16.71938386836457 -31.472250532410637
rfemur -26.965521819349625 -0.06597323102740349 16.641919287956732
rtibia 47.03813124024881
rfoot -17.49870684579031 -14.240166816610893
rtoes -17.804557286027602
lfemur -17.50975210821201 0.8658188568441657 -14.954192383485209
ltibia 42.063744955001816
lfoot -18.951445694323862 -0.6277176617238647
ltoes -20.978507619749813
191
root 0 0 0 2.2565011554438383 -4.033996741066332 2.65677971647321
lowerback 11.963287426939315 1.0317929838832018 -0.5617539920412883
upperback -4.1792182756235245 1.2605688827465964 -0.8377055614755994
thorax -11.180093320989725 0.5857069931510832 -0.8434494412956184
lowerneck -6.884139490204341 1.3309801423010217 4.301390532094669
upperneck 19.589576103040635 2.7686024710963464 -8.19475760989406
head 7.285319689355499 0.9419018874283561 -3.18099724687752
rclavicle -3.57556044940928E-16 -1.439985772707479E-15
rhumerus 16.10815278238055 11.564620348877904 -50.326072731961524
rradius 67.8365468322847
rwrist 24.95389361644976
rhand -32.89573138995653 -49.13715231305164
rfingers 7.125019999999963
rthumb -6.158158914789219 -79.26507302406966
lclavicle 9.722694449214524E-16 8.084300156097893E-17
lhumerus 17.198170091220014 -12.557006290837728 49.111154788086836
lradius 66.49255278341525
lwrist -18.81898843237872
lhand -43.91815844423664 -61.24435997242523
lfingers 7.125019999999955
lthumb -16.75762541002074 -31.78984168296122
rfemur -30.20367430428953 -1.4300246291700676 15.058740885691218
rtibia 55.639472052166916
rfoot -12.479182826064294 -13.445819593052311
rtoes -14.35775944260159
lfemur -16.50120962261393 2.2725620059871803 -14.93995241413241
ltibia 53.14753206449381
lfoot -14.645789714227023 -4.86402923297902
ltoes -20.540510091805082
